<svg id="visual" viewBox="0 0 1200 1100" width="1200" height="1100" xmlns="http://www.w3.org/2000/svg" xmlns:xlink="http://www.w3.org/1999/xlink" version="1.1"><rect x="0" y="0" width="1200" height="1100" fill="#ffff66"></rect><defs><linearGradient id="grad1_0" x1="8.3%" y1="0%" x2="100%" y2="100%"><stop offset="28.18181818181818%" stop-color="#ffff66" stop-opacity="1"></stop><stop offset="71.81818181818181%" stop-color="#ffff66" stop-opacity="1"></stop></linearGradient></defs><defs><linearGradient id="grad2_0" x1="0%" y1="0%" x2="91.7%" y2="100%"><stop offset="28.18181818181818%" stop-color="#ffff66" stop-opacity="1"></stop><stop offset="71.81818181818181%" stop-color="#ffff66" stop-opacity="1"></stop></linearGradient></defs><g transform="translate(1200, 0)"><path d="M0 610.5C-22.1 585.6 -44.2 560.8 -75.1 570.1C-105.9 579.4 -145.7 622.8 -156.8 585.4C-168 547.9 -150.7 429.5 -164.9 398.2C-179.2 366.9 -225.1 422.6 -243 420.9C-260.9 419.1 -250.9 359.9 -252 328.4C-253.2 297 -265.4 293.3 -297 297C-328.5 300.7 -379.3 311.8 -385.6 295.9C-391.8 279.9 -353.5 236.8 -400.1 231C-446.7 225.2 -578.1 256.5 -564 233.6C-549.9 210.7 -390.3 133.5 -381.5 102.2C-372.7 70.9 -514.7 85.5 -578 76.1C-641.3 66.7 -625.9 33.4 -610.5 0L0 0Z" fill="#000000"></path></g><g transform="translate(0, 1100)"><path d="M0 -610.5C27.5 -604.6 55 -598.8 75.1 -570.1C95.1 -541.4 107.6 -489.8 126.6 -472.3C145.6 -454.9 171.1 -471.6 197.1 -475.8C223.1 -480 249.5 -471.9 253 -438.2C256.5 -404.5 237.1 -345.4 263 -342.7C288.9 -340.1 360 -393.9 408.7 -408.7C457.4 -423.5 483.6 -399.4 463.3 -355.5C443 -311.6 376.2 -248 401.8 -232C427.5 -216 545.7 -247.5 564 -233.6C582.2 -219.7 500.5 -160.5 470.4 -126C440.3 -91.6 461.8 -81.9 493.7 -65C525.7 -48.1 568.1 -24.1 610.5 0L0 0Z" fill="#000000"></path></g></svg>