<svg id="visual" viewBox="0 0 768 1024" width="768" height="1024" xmlns="http://www.w3.org/2000/svg" xmlns:xlink="http://www.w3.org/1999/xlink" version="1.1"><rect x="0" y="0" width="768" height="1024" fill="#ffff66"></rect><defs><linearGradient id="grad1_0" x1="0%" y1="0%" x2="100%" y2="100%"><stop offset="30%" stop-color="#ffff66" stop-opacity="1"></stop><stop offset="70%" stop-color="#ffff66" stop-opacity="1"></stop></linearGradient></defs><defs><linearGradient id="grad2_0" x1="0%" y1="0%" x2="100%" y2="100%"><stop offset="30%" stop-color="#ffff66" stop-opacity="1"></stop><stop offset="70%" stop-color="#ffff66" stop-opacity="1"></stop></linearGradient></defs><g transform="translate(768, 0)"><path d="M0 480C-21.8 447.8 -43.6 415.5 -73.1 414.6C-102.6 413.7 -139.8 444.1 -155.6 427.6C-171.5 411 -166 347.6 -196 339.5C-226 331.4 -291.6 378.6 -308.5 367.7C-325.5 356.8 -293.8 287.8 -313.3 262.9C-332.8 238 -403.6 257.1 -413.1 238.5C-422.6 219.9 -370.8 163.6 -359.9 131C-349 98.4 -378.9 89.4 -405.7 71.5C-432.6 53.7 -456.3 26.8 -480 0L0 0Z" fill="#000000"></path></g><g transform="translate(0, 1024)"><path d="M0 -480C33.3 -493.2 66.6 -506.4 83.4 -472.7C100.1 -439 100.2 -358.3 126.5 -347.7C152.9 -337.1 205.6 -396.6 230 -398.4C254.4 -400.1 250.6 -344 268.7 -320.2C286.7 -296.4 326.7 -304.9 349.3 -293.1C372 -281.3 377.4 -249.3 381.1 -220C384.7 -190.7 386.7 -164.3 382.5 -139.2C378.2 -114.1 367.9 -90.5 383.1 -67.5C398.3 -44.6 439.2 -22.3 480 0L0 0Z" fill="#000000"></path></g></svg>