<svg id="visual" viewBox="0 0 350 660" width="350" height="660" xmlns="http://www.w3.org/2000/svg" xmlns:xlink="http://www.w3.org/1999/xlink" version="1.1"><rect x="0" y="0" width="350" height="660" fill="#ffff66"></rect><defs><linearGradient id="grad1_0" x1="0%" y1="0%" x2="100%" y2="100%"><stop offset="30%" stop-color="#ffff66" stop-opacity="1"></stop><stop offset="70%" stop-color="#ffff66" stop-opacity="1"></stop></linearGradient></defs><defs><linearGradient id="grad2_0" x1="0%" y1="0%" x2="100%" y2="100%"><stop offset="30%" stop-color="#ffff66" stop-opacity="1"></stop><stop offset="70%" stop-color="#ffff66" stop-opacity="1"></stop></linearGradient></defs><g transform="translate(350, 0)"><path d="M0 262.5C-13.5 242.3 -26.9 222 -36.3 205.8C-45.7 189.6 -51 177.4 -67.4 185.1C-83.8 192.9 -111.3 220.5 -129.5 224.3C-147.7 228.1 -156.7 207.9 -155.6 185.4C-154.4 162.8 -143.2 137.9 -156.3 131.1C-169.4 124.4 -206.8 135.8 -227.3 131.3C-247.9 126.7 -251.5 106.3 -238.7 86.9C-225.9 67.5 -196.7 49.2 -197.9 34.9C-199.2 20.6 -230.8 10.3 -262.5 0L0 0Z" fill="#000000"></path></g><g transform="translate(0, 660)"><path d="M0 -262.5C15.2 -262.7 30.5 -262.9 45.6 -258.5C60.7 -254.2 75.7 -245.3 82.8 -227.4C89.8 -209.5 88.8 -182.6 103 -178.4C117.2 -174.2 146.6 -192.7 158.1 -188.4C169.6 -184.2 163.2 -157.1 172.4 -144.6C181.5 -132.1 206.1 -134.2 216.5 -125C226.9 -115.8 223 -95.2 215.2 -78.3C207.4 -61.4 195.6 -48.2 202.9 -35.8C210.1 -23.3 236.3 -11.7 262.5 0L0 0Z" fill="#000000"></path></g></svg>