<svg id="visual" viewBox="0 0 440 60" width="440" height="60" xmlns="http://www.w3.org/2000/svg" xmlns:xlink="http://www.w3.org/1999/xlink" version="1.1"><rect x="0" y="0" width="440" height="60" fill="#000000"></rect><path d="M0 13L2.5 13C5 13 10 13 14.8 13C19.7 13 24.3 13 29.2 13C34 13 39 13 44 18.8C49 24.7 54 36.3 58.8 43.7C63.7 51 68.3 54 73.2 52.2C78 50.3 83 43.7 88 35.8C93 28 98 19 102.8 20.5C107.7 22 112.3 34 117.2 41.7C122 49.3 127 52.7 132 53.2C137 53.7 142 51.3 146.8 45.3C151.7 39.3 156.3 29.7 161.2 29.2C166 28.7 171 37.3 176 42.3C181 47.3 186 48.7 190.8 41C195.7 33.3 200.3 16.7 205.2 8.5C210 0.3 215 0.7 220 2.7C225 4.7 230 8.3 234.8 16.2C239.7 24 244.3 36 249.2 39C254 42 259 36 264 32C269 28 274 26 278.8 23.8C283.7 21.7 288.3 19.3 293.2 20.7C298 22 303 27 308 32.2C313 37.3 318 42.7 322.8 41C327.7 39.3 332.3 30.7 337.2 23.3C342 16 347 10 352 12.8C357 15.7 362 27.3 366.8 34.2C371.7 41 376.3 43 381.2 41.8C386 40.7 391 36.3 396 29.5C401 22.7 406 13.3 410.8 15.5C415.7 17.7 420.3 31.3 425.2 35.2C430 39 435 33 437.5 30L440 27L440 61L437.5 61C435 61 430 61 425.2 61C420.3 61 415.7 61 410.8 61C406 61 401 61 396 61C391 61 386 61 381.2 61C376.3 61 371.7 61 366.8 61C362 61 357 61 352 61C347 61 342 61 337.2 61C332.3 61 327.7 61 322.8 61C318 61 313 61 308 61C303 61 298 61 293.2 61C288.3 61 283.7 61 278.8 61C274 61 269 61 264 61C259 61 254 61 249.2 61C244.3 61 239.7 61 234.8 61C230 61 225 61 220 61C215 61 210 61 205.2 61C200.3 61 195.7 61 190.8 61C186 61 181 61 176 61C171 61 166 61 161.2 61C156.3 61 151.7 61 146.8 61C142 61 137 61 132 61C127 61 122 61 117.2 61C112.3 61 107.7 61 102.8 61C98 61 93 61 88 61C83 61 78 61 73.2 61C68.3 61 63.7 61 58.8 61C54 61 49 61 44 61C39 61 34 61 29.2 61C24.3 61 19.7 61 14.8 61C10 61 5 61 2.5 61L0 61Z" fill="#ffff66" stroke-linecap="round" stroke-linejoin="miter"></path></svg>