<svg id="visual" viewBox="0 0 350 660" width="350" height="660" xmlns="http://www.w3.org/2000/svg" xmlns:xlink="http://www.w3.org/1999/xlink" version="1.1"><rect x="0" y="0" width="350" height="660" fill="#000000"></rect><g transform="translate(189.72331925919906 294.2797576579477)"><path d="M65.3 -116.4C82.8 -90.5 93.6 -69.1 102.6 -47.4C111.6 -25.8 118.6 -3.9 126.5 26C134.4 55.9 143.2 93.8 130.2 117.8C117.1 141.8 82.4 152 42.7 179C3 206.1 -41.6 249.9 -76.7 246.4C-111.7 242.8 -137.1 191.8 -143.7 145.8C-150.2 99.9 -138 59 -143.5 20.6C-149 -17.7 -172.3 -53.5 -164.8 -77.6C-157.4 -101.6 -119.3 -113.9 -86.7 -132.8C-54.1 -151.8 -27 -177.4 -1.5 -175C24 -172.6 47.9 -142.3 65.3 -116.4" fill="#ffff66"></path></g></svg>