<svg id="visual" viewBox="0 0 640 890" width="640" height="890" xmlns="http://www.w3.org/2000/svg" xmlns:xlink="http://www.w3.org/1999/xlink" version="1.1"><rect x="0" y="0" width="640" height="890" fill="#000000"></rect><g transform="translate(369.0671643430841 429.00154940817623)"><path d="M163.5 -279.4C213 -222.5 255.2 -179.2 261.4 -129.9C267.6 -80.6 237.7 -25.4 227.1 31C216.4 87.4 225 144.9 216.6 229.4C208.3 314 183 425.7 133.8 427C84.6 428.3 11.5 319.2 -74.4 281.3C-160.3 243.3 -258.9 276.5 -283.4 246.5C-307.9 216.5 -258.4 123.3 -274.8 37C-291.1 -49.4 -373.4 -128.7 -358.6 -164.9C-343.8 -201 -231.9 -193.9 -156 -238.7C-80 -283.5 -40 -380.3 8.5 -393.4C56.9 -406.6 113.9 -336.2 163.5 -279.4" fill="#ffff66"></path></g></svg>