<svg id="visual" viewBox="0 0 1000 980" width="1000" height="980" xmlns="http://www.w3.org/2000/svg" xmlns:xlink="http://www.w3.org/1999/xlink" version="1.1"><rect x="0" y="0" width="1000" height="980" fill="#000000"></rect><g transform="translate(625.1029188937991 510.2918262982959)"><path d="M174.5 -237C223.1 -240.2 257.6 -186.8 296.7 -127.7C335.9 -68.6 379.8 -3.8 367 49.5C354.2 102.8 284.8 144.7 218.5 149.3C152.2 153.8 89.1 121 24.7 186.8C-39.7 252.6 -105.2 417 -135.2 424.6C-165.2 432.2 -159.7 282.9 -228.2 199.9C-296.8 117 -439.4 100.3 -525.1 27.2C-610.9 -46 -639.7 -175.7 -605.3 -286.9C-570.8 -398.2 -473 -491 -361.6 -459.1C-250.1 -427.2 -125.1 -270.6 -31.1 -222.2C62.9 -173.9 125.8 -233.7 174.5 -237" fill="#ffff66"></path></g></svg>