<?xml version="1.0" encoding="UTF-8"?>
<svg xmlns="http://www.w3.org/2000/svg" xmlns:xlink="http://www.w3.org/1999/xlink" viewBox="0 0 96 96" width="96px" height="96px">
<g id="surface50921209">
<path style=" stroke:none;fill-rule:nonzero;fill:rgb(0%,0%,0%);fill-opacity:1;" d="M 48 96 C 21.492188 96 0 74.507812 0 48 C 0 21.492188 21.492188 0 48 0 C 74.507812 0 96 21.492188 96 48 C 96 74.507812 74.507812 96 48 96 Z M 48 96 "/>
<path style=" stroke:none;fill-rule:nonzero;fill:rgb(0%,0%,0%);fill-opacity:1;" d="M 39 81.210938 C 34.566406 81.210938 31.0625 81.28125 28.21875 79.972656 C 26.261719 79.074219 24.703125 78.03125 23.097656 76.824219 C 21.832031 75.871094 19.535156 73.984375 18.257812 71.898438 C 17.484375 70.640625 17.242188 69.304688 16.894531 68.140625 C 14.496094 60.066406 15.523438 51.433594 14.84375 43.484375 C 14.539062 39.9375 15.105469 36.335938 15.464844 32.820312 C 15.535156 32.09375 15.621094 31.351562 15.746094 30.617188 C 16.136719 28.351562 16.878906 26.304688 17.957031 24.527344 C 18.675781 23.34375 19.578125 22.226562 20.632812 21.203125 C 22.214844 19.683594 24.046875 18.453125 26.085938 17.546875 C 29.535156 16.015625 32.972656 15.636719 36.480469 15.355469 L 42.613281 14.875 C 46.402344 14.570312 50.375 14.25 54.394531 14.394531 C 57.84375 14.515625 61.203125 14.761719 64.320312 15.007812 C 65.691406 15.117188 67.402344 15.25 69.230469 15.867188 C 72.101562 16.839844 74.710938 18.867188 76.566406 21.578125 C 77.925781 23.5625 79.359375 25.519531 80.023438 28.316406 C 80.84375 31.757812 80.511719 35.433594 80.613281 38.355469 C 80.640625 39.234375 80.671875 40.105469 80.714844 40.972656 C 80.816406 43.011719 80.90625 45.046875 80.96875 47.082031 C 81.113281 51.9375 81.058594 55.984375 80.800781 59.816406 C 80.484375 64.472656 80.65625 70.480469 76.792969 74.59375 C 71.480469 80.242188 62.835938 81.621094 57.507812 81.6875 L 56.949219 81.691406 C 56.949219 81.691406 55.886719 81.683594 55.363281 81.675781 L 53.988281 81.660156 C 51.84375 81.664062 49.6875 81.046875 47.460938 81.25 C 45.554688 81.425781 43.863281 81.046875 42.148438 81.128906 C 41.148438 81.175781 40.085938 81.210938 39 81.210938 Z M 52.304688 20.015625 C 49.191406 20.015625 46.050781 20.269531 43.011719 20.515625 L 36.875 20.996094 C 33.84375 21.238281 31.167969 21.648438 28.476562 22.84375 C 27 23.5 25.820312 24.25 24.691406 25.339844 C 23.960938 26.046875 23.363281 26.832031 22.878906 27.628906 C 22.144531 28.839844 21.613281 29.773438 21.335938 31.378906 C 21.234375 31.988281 21.164062 32.605469 21.101562 33.21875 C 20.757812 36.589844 20.558594 40.027344 20.507812 43.433594 C 20.398438 50.984375 20.601562 58.992188 22.796875 66.382812 C 23.035156 67.179688 23.414062 67.769531 23.890625 68.550781 C 24.648438 69.789062 25.804688 70.660156 26.824219 71.425781 C 28.25 72.496094 29.546875 73.4375 31.039062 74.117188 C 33.167969 75.101562 35.515625 75.214844 39.160156 75.214844 C 40.164062 75.214844 41.144531 75.179688 42.066406 75.136719 C 43.742188 75.0625 45.414062 74.910156 47.089844 74.757812 C 49.480469 74.542969 51.695312 74.34375 54.078125 74.335938 C 54.492188 74.335938 54.898438 74.339844 55.304688 74.347656 L 55.539062 74.351562 C 56.046875 74.359375 56.539062 74.367188 57.03125 74.367188 L 57.554688 74.367188 C 61.90625 74.3125 67.628906 74.023438 71.566406 69.839844 C 74.289062 66.9375 74.632812 63.222656 74.882812 59.492188 C 75.132812 55.832031 75.183594 51.949219 75.046875 47.269531 C 74.984375 45.269531 74.894531 43.269531 74.796875 41.269531 C 74.75 40.367188 74.71875 39.46875 74.691406 38.5625 C 74.597656 35.890625 74.605469 33.003906 73.910156 30.074219 C 73.394531 27.921875 72.492188 26.492188 71.503906 25.050781 C 70.285156 23.277344 69.269531 21.980469 67.472656 21.371094 C 66.265625 20.960938 65.046875 20.84375 63.851562 20.746094 C 60.792969 20.507812 57.539062 20.164062 54.183594 20.042969 C 53.554688 20.023438 52.929688 20.015625 52.304688 20.015625 Z M 52.304688 20.015625 "/>
<path style=" stroke:none;fill-rule:nonzero;fill:rgb(100%,100%,40.000001%);fill-opacity:1;" d="M 38.988281 75.867188 C 35.976562 75.867188 33.023438 75.566406 30.566406 74.4375 C 29.074219 73.746094 27.78125 72.8125 26.371094 71.75 C 25.355469 70.984375 24.203125 70.117188 23.453125 68.898438 C 22.976562 68.117188 22.695312 67.242188 22.472656 66.488281 C 20.277344 59.109375 20.078125 51.109375 20.1875 43.5625 C 20.234375 40.160156 20.4375 36.730469 20.777344 33.363281 C 20.839844 32.746094 20.90625 32.128906 21.011719 31.515625 C 21.289062 29.917969 21.796875 28.5 22.527344 27.300781 C 23.003906 26.507812 23.617188 25.753906 24.347656 25.046875 C 25.46875 23.964844 26.78125 23.085938 28.253906 22.433594 C 30.925781 21.246094 33.871094 20.929688 36.902344 20.683594 L 43.03125 20.203125 C 46.679688 19.90625 50.457031 19.601562 54.199219 19.734375 C 57.539062 19.855469 60.832031 20.09375 63.898438 20.335938 C 65.085938 20.429688 66.316406 20.527344 67.515625 20.933594 C 69.300781 21.535156 70.949219 22.835938 72.15625 24.597656 C 73.136719 26.03125 73.863281 27.773438 74.375 29.917969 C 75.074219 32.855469 75.179688 35.875 75.269531 38.539062 L 75.277344 38.792969 C 75.304688 39.609375 75.332031 40.425781 75.375 41.242188 C 75.476562 43.242188 75.566406 45.238281 75.625 47.238281 C 75.765625 51.945312 75.714844 55.824219 75.464844 59.453125 C 75.214844 63.167969 74.59375 67.359375 71.882812 70.242188 C 67.96875 74.40625 61.730469 74.960938 57.375 75.015625 C 56.730469 75.023438 56.074219 75.011719 55.425781 75 C 54.886719 74.992188 54.367188 74.984375 53.804688 74.984375 C 51.503906 74.992188 49.160156 75.203125 46.894531 75.410156 C 45.261719 75.558594 43.578125 75.710938 41.90625 75.785156 C 40.9375 75.835938 39.960938 75.867188 38.988281 75.867188 Z M 52.339844 21.304688 C 49.269531 21.304688 46.175781 21.554688 43.164062 21.800781 L 37.035156 22.277344 C 34.035156 22.519531 31.351562 22.808594 28.90625 23.898438 C 27.605469 24.472656 26.449219 25.25 25.460938 26.199219 C 24.828125 26.808594 24.304688 27.457031 23.898438 28.128906 C 23.269531 29.160156 22.832031 30.390625 22.59375 31.789062 C 22.492188 32.363281 22.429688 32.941406 22.371094 33.527344 C 22.03125 36.84375 21.835938 40.230469 21.789062 43.589844 C 21.679688 51.007812 21.875 58.859375 24.007812 66.03125 C 24.210938 66.722656 24.441406 67.445312 24.820312 68.0625 C 25.410156 69.023438 26.386719 69.761719 27.335938 70.472656 C 28.671875 71.480469 29.890625 72.363281 31.238281 72.984375 C 34.179688 74.335938 38.066406 74.359375 41.832031 74.191406 C 43.46875 74.117188 45.136719 73.964844 46.75 73.820312 C 49.050781 73.613281 51.429688 73.394531 53.800781 73.386719 C 54.355469 73.386719 54.902344 73.394531 55.453125 73.402344 C 56.089844 73.414062 56.722656 73.425781 57.355469 73.417969 C 61.761719 73.363281 67.261719 72.828125 70.71875 69.148438 C 73.082031 66.632812 73.640625 62.78125 73.871094 59.34375 C 74.113281 55.773438 74.164062 51.941406 74.027344 47.289062 C 73.96875 45.300781 73.878906 43.3125 73.78125 41.324219 C 73.738281 40.5 73.710938 39.671875 73.679688 38.847656 L 73.671875 38.59375 C 73.582031 36.003906 73.484375 33.070312 72.824219 30.289062 C 72.359375 28.339844 71.710938 26.773438 70.839844 25.507812 C 69.828125 24.027344 68.464844 22.941406 67.007812 22.449219 C 65.996094 22.109375 64.867188 22.019531 63.773438 21.933594 C 60.730469 21.695312 57.453125 21.457031 54.144531 21.339844 C 53.542969 21.3125 52.941406 21.304688 52.339844 21.304688 Z M 52.339844 21.304688 "/>
<path style=" stroke:none;fill-rule:nonzero;fill:rgb(100%,100%,40.000001%);fill-opacity:1;" d="M 51.464844 82.476562 C 49.867188 82.476562 48.273438 82.4375 46.6875 82.359375 C 45.242188 82.292969 43.785156 82.136719 42.382812 81.984375 C 40.960938 81.835938 39.492188 81.675781 38.0625 81.613281 L 36.472656 81.550781 C 34.101562 81.464844 31.652344 81.375 29.242188 80.976562 C 27.714844 80.726562 26.105469 80.378906 24.691406 79.53125 C 23.667969 78.914062 22.847656 78.101562 22.054688 77.3125 L 19.039062 74.324219 C 18.296875 73.589844 17.535156 72.832031 16.960938 71.886719 C 16.285156 70.765625 15.964844 69.519531 15.742188 68.445312 C 14.949219 64.660156 14.902344 60.789062 14.972656 57.171875 C 15.015625 54.9375 14.824219 52.667969 14.636719 50.472656 C 14.527344 49.171875 14.414062 47.871094 14.347656 46.5625 C 14.179688 43.296875 14.082031 39.980469 14.054688 36.707031 C 14.023438 32.753906 14.140625 28.597656 15.949219 25.007812 C 17.632812 21.664062 20.816406 18.871094 24.914062 17.136719 C 28.765625 15.511719 32.914062 14.964844 36.46875 14.644531 C 37.6875 14.535156 38.902344 14.414062 40.117188 14.296875 C 42.644531 14.050781 45.261719 13.792969 47.847656 13.625 C 50.476562 13.457031 53.199219 13.667969 55.828125 13.875 C 56.929688 13.960938 58.019531 14.046875 59.097656 14.109375 C 63.578125 14.347656 68.65625 14.621094 72.972656 16.964844 C 77.3125 19.320312 80.4375 23.621094 81.335938 28.472656 C 81.769531 30.816406 81.828125 33.191406 81.828125 34.996094 C 81.832031 35.929688 81.816406 36.863281 81.800781 37.792969 C 81.78125 38.703125 81.769531 39.609375 81.769531 40.503906 C 81.769531 42.5625 81.824219 44.644531 81.878906 46.738281 C 81.996094 51.230469 82.117188 55.875 81.6875 60.359375 C 81.300781 64.347656 80.46875 68.277344 79.214844 72.046875 C 78.914062 72.941406 78.574219 73.882812 77.96875 74.703125 C 77.324219 75.578125 76.441406 76.21875 75.664062 76.789062 C 73.671875 78.234375 71.613281 79.730469 69.210938 80.589844 C 67.550781 81.191406 65.777344 81.453125 64.25 81.648438 C 60.019531 82.199219 55.738281 82.476562 51.464844 82.476562 Z M 49.871094 15.164062 C 49.226562 15.164062 48.582031 15.183594 47.953125 15.226562 C 45.390625 15.390625 42.789062 15.648438 40.269531 15.890625 C 39.050781 16.011719 37.832031 16.128906 36.609375 16.242188 C 33.179688 16.550781 29.183594 17.074219 25.535156 18.613281 C 21.789062 20.199219 18.890625 22.722656 17.375 25.726562 C 15.730469 29 15.621094 32.78125 15.65625 36.695312 C 15.683594 39.941406 15.78125 43.234375 15.945312 46.480469 C 16.011719 47.769531 16.121094 49.050781 16.230469 50.332031 C 16.421875 52.570312 16.617188 54.882812 16.574219 57.199219 C 16.507812 60.722656 16.546875 64.484375 17.308594 68.117188 C 17.507812 69.058594 17.78125 70.144531 18.332031 71.058594 C 18.800781 71.832031 19.496094 72.519531 20.164062 73.183594 L 23.179688 76.171875 C 23.910156 76.890625 24.664062 77.636719 25.519531 78.152344 C 26.699219 78.863281 28.132812 79.167969 29.5 79.394531 C 31.8125 79.773438 34.210938 79.863281 36.53125 79.949219 L 38.136719 80.011719 C 39.617188 80.074219 41.109375 80.238281 42.554688 80.390625 C 43.9375 80.539062 45.367188 80.691406 46.765625 80.757812 C 52.523438 81.035156 58.332031 80.800781 64.046875 80.058594 C 65.492188 79.871094 67.160156 79.625 68.671875 79.082031 C 70.863281 78.296875 72.828125 76.871094 74.726562 75.492188 C 75.445312 74.96875 76.1875 74.429688 76.6875 73.75 C 77.152344 73.117188 77.445312 72.3125 77.703125 71.535156 C 78.917969 67.882812 79.722656 64.070312 80.097656 60.207031 C 80.519531 55.816406 80.398438 51.222656 80.285156 46.777344 C 80.226562 44.671875 80.171875 42.574219 80.171875 40.503906 C 80.171875 39.601562 80.1875 38.683594 80.203125 37.765625 C 80.21875 36.84375 80.234375 35.917969 80.234375 34.992188 C 80.234375 33.257812 80.179688 30.976562 79.769531 28.761719 C 78.96875 24.445312 76.074219 20.460938 72.214844 18.367188 C 68.214844 16.199219 63.328125 15.933594 59.015625 15.703125 C 57.925781 15.644531 56.820312 15.554688 55.710938 15.46875 C 53.773438 15.320312 51.796875 15.164062 49.871094 15.164062 Z M 49.871094 15.164062 "/>
<path style=" stroke:none;fill-rule:nonzero;fill:rgb(0%,0%,0%);fill-opacity:1;" d="M 66.957031 27.789062 C 65.742188 26.777344 63.855469 26.605469 62.390625 27.53125 C 61.285156 28.226562 61.027344 29.859375 61.636719 31.019531 C 62.664062 32.972656 66.242188 34.28125 67.675781 32.101562 C 68.15625 31.375 68.273438 30.4375 68.070312 29.59375 C 67.890625 28.84375 67.488281 28.234375 66.957031 27.789062 Z M 66.957031 27.789062 "/>
<path style=" stroke:none;fill-rule:nonzero;fill:rgb(100%,100%,40.000001%);fill-opacity:1;" d="M 65.464844 34.03125 C 65.394531 34.03125 65.320312 34.03125 65.25 34.027344 C 63.503906 33.941406 61.6875 32.832031 60.929688 31.390625 C 60.082031 29.78125 60.546875 27.75 61.960938 26.851562 C 63.675781 25.769531 65.941406 25.902344 67.464844 27.175781 C 68.160156 27.753906 68.636719 28.527344 68.847656 29.40625 C 69.109375 30.511719 68.925781 31.652344 68.34375 32.542969 C 67.710938 33.507812 66.695312 34.03125 65.464844 34.03125 Z M 64.503906 27.726562 C 63.917969 27.726562 63.324219 27.886719 62.816406 28.207031 C 62.117188 28.648438 61.894531 29.789062 62.34375 30.640625 C 62.839844 31.585938 64.152344 32.371094 65.328125 32.429688 C 66.058594 32.449219 66.648438 32.207031 67.007812 31.660156 C 67.347656 31.148438 67.453125 30.445312 67.292969 29.777344 C 67.164062 29.234375 66.867188 28.757812 66.445312 28.402344 C 65.90625 27.957031 65.207031 27.726562 64.503906 27.726562 Z M 64.503906 27.726562 "/>
<path style=" stroke:none;fill-rule:nonzero;fill:rgb(0%,0%,0%);fill-opacity:1;" d="M 48.648438 63.734375 C 45.921875 63.734375 43.042969 64.070312 40.722656 62.8125 C 39.367188 62.078125 38.347656 61.378906 37.628906 60.730469 C 37.34375 60.476562 36.425781 59.660156 36.210938 59.523438 C 32.351562 57.101562 31.351562 51.300781 31.492188 47.640625 C 31.574219 45.394531 32.3125 43.582031 32.855469 42.257812 C 33.589844 40.445312 34.59375 37.953125 36.667969 35.839844 C 38.953125 33.507812 42.074219 32.105469 45.695312 31.777344 C 47.109375 31.648438 48.585938 31.695312 50.039062 31.902344 C 53.230469 32.363281 56.160156 33.535156 58.507812 35.285156 C 61.4375 37.472656 63.457031 40.535156 64.191406 43.90625 C 65.5 49.949219 63.109375 56.761719 58.375 60.472656 C 55.691406 62.578125 52.238281 63.734375 48.648438 63.734375 Z M 47.710938 37.632812 C 47.332031 37.632812 46.625 37.863281 46.246094 37.898438 C 43.882812 38.109375 42.710938 38.125 41.3125 39.550781 C 39.972656 40.917969 39.296875 42.710938 38.664062 44.277344 C 38.226562 45.347656 37.355469 46.683594 37.308594 48 C 37.222656 50.179688 38.398438 52.449219 40.410156 53.710938 C 40.914062 54.027344 41.054688 54.816406 41.535156 55.242188 C 42.136719 55.785156 43.054688 55.96875 43.855469 56.40625 C 47.429688 58.34375 51.476562 58.074219 54.589844 55.636719 C 57.691406 53.207031 59.058594 49.230469 58.1875 45.222656 C 57.722656 43.089844 56.890625 41.203125 54.976562 39.773438 C 53.332031 38.542969 51.484375 38.324219 49.15625 37.988281 C 48.5 37.890625 48.359375 37.632812 47.710938 37.632812 Z M 47.710938 37.632812 "/>
<path style=" stroke:none;fill-rule:nonzero;fill:rgb(100%,100%,40.000001%);fill-opacity:1;" d="M 48.644531 58.394531 C 46.859375 58.394531 45.0625 57.96875 43.472656 57.109375 C 42.683594 56.679688 42.050781 56.109375 41.441406 55.5625 C 40.957031 55.125 40.5 54.710938 39.984375 54.390625 C 37.996094 53.144531 36.75 50 36.832031 47.84375 C 36.882812 46.542969 37.371094 45.339844 37.800781 44.273438 C 38.4375 42.710938 39.15625 40.9375 40.480469 39.582031 C 41.863281 38.171875 43.835938 37.3125 46.175781 37.101562 C 47.179688 37.011719 48.21875 37.042969 49.273438 37.195312 C 51.585938 37.527344 53.671875 38.347656 55.308594 39.570312 C 57.207031 40.984375 58.507812 42.933594 58.96875 45.046875 C 59.832031 49.03125 58.164062 53.851562 55.082031 56.265625 C 53.285156 57.671875 50.976562 58.394531 48.644531 58.394531 Z M 46.316406 38.695312 C 44.953125 38.820312 43.03125 39.269531 41.625 40.703125 C 40.515625 41.832031 39.890625 43.378906 39.285156 44.875 C 38.882812 45.863281 38.46875 46.886719 38.429688 47.90625 C 38.367188 49.542969 39.402344 52.140625 40.832031 53.035156 C 41.464844 53.433594 41.996094 53.914062 42.507812 54.375 C 43.074219 54.882812 43.609375 55.367188 44.234375 55.703125 C 47.308594 57.367188 51.453125 57.074219 54.09375 55.007812 C 56.722656 52.945312 58.144531 48.808594 57.402344 45.390625 C 57.027344 43.675781 55.914062 42.023438 54.347656 40.851562 C 52.925781 39.792969 51.089844 39.074219 49.042969 38.777344 C 48.113281 38.644531 47.199219 38.617188 46.316406 38.695312 Z M 46.316406 38.695312 "/>
<path style=" stroke:none;fill-rule:nonzero;fill:rgb(100%,100%,40.000001%);fill-opacity:1;" d="M 47.78125 64.988281 C 45.054688 64.988281 42.417969 64.453125 40.03125 63.390625 C 35.527344 61.378906 32.214844 57.699219 31.179688 53.546875 C 30.382812 50.363281 30.925781 47.136719 31.480469 44.675781 C 31.933594 42.679688 32.683594 39.773438 33.976562 37.59375 C 35.089844 35.707031 36.597656 34.046875 38.339844 32.789062 C 39.46875 31.976562 40.632812 31.367188 41.792969 30.984375 C 41.796875 30.984375 41.941406 30.9375 41.953125 30.933594 C 45.28125 29.890625 48.949219 30.539062 51.890625 31.058594 C 55.785156 31.75 59.84375 34.773438 62.144531 37.46875 C 62.765625 38.203125 63.207031 38.839844 63.527344 39.484375 C 64.214844 40.855469 64.417969 42.375 64.53125 43.804688 C 64.855469 47.890625 64.503906 51.382812 63.457031 54.480469 C 61.8125 59.363281 58.671875 62.644531 54.378906 63.96875 C 52.179688 64.648438 49.953125 64.988281 47.78125 64.988281 Z M 42.191406 31.695312 L 42.300781 32.5 C 41.289062 32.835938 40.269531 33.371094 39.273438 34.085938 C 37.710938 35.214844 36.355469 36.710938 35.351562 38.410156 C 34.175781 40.394531 33.46875 43.136719 33.039062 45.03125 C 32.523438 47.316406 32.019531 50.304688 32.730469 53.160156 C 33.648438 56.839844 36.625 60.117188 40.683594 61.925781 C 44.613281 63.683594 49.3125 63.863281 53.910156 62.441406 C 58.6875 60.964844 60.914062 57.015625 61.941406 53.96875 C 62.917969 51.078125 63.242188 47.796875 62.9375 43.933594 C 62.835938 42.660156 62.660156 41.328125 62.097656 40.199219 C 61.835938 39.675781 61.464844 39.136719 60.925781 38.507812 C 58.882812 36.109375 55.097656 33.25 51.613281 32.632812 C 48.695312 32.117188 45.382812 31.535156 42.433594 32.460938 Z M 42.191406 31.695312 L 42.207031 31.695312 Z M 42.191406 31.695312 "/>
</g>
</svg>
