<?xml version="1.0" standalone="no"?>
<!DOCTYPE svg PUBLIC "-//W3C//DTD SVG 20010904//EN"
 "http://www.w3.org/TR/2001/REC-SVG-20010904/DTD/svg10.dtd">
<svg version="1.0" xmlns="http://www.w3.org/2000/svg"
 width="180.000000pt" height="180.000000pt" viewBox="0 0 180.000000 180.000000"
 preserveAspectRatio="xMidYMid meet">
<metadata>
Created by potrace 1.10, written by Peter Selinger 2001-2011
</metadata>
<g transform="translate(0.000000,180.000000) scale(0.100000,-0.100000)"
fill="#ffff00" stroke="none">
<path d="M1417 1784 c-15 -8 -25 -20 -21 -26 4 -6 1 -9 -7 -6 -8 3 -19 0 -25
-6 -34 -32 -56 -46 -64 -41 -5 3 -7 -4 -5 -15 2 -11 0 -18 -6 -15 -10 7 -75
-54 -72 -67 2 -4 -2 -7 -8 -5 -6 1 -18 -12 -28 -29 -10 -19 -22 -29 -31 -26
-13 5 -13 3 0 -13 13 -17 13 -18 -1 -13 -13 5 -23 -7 -44 -55 -14 -34 -30 -71
-35 -82 -19 -42 -41 -149 -36 -171 3 -13 2 -26 -4 -29 -6 -3 -7 1 -4 10 4 10
2 14 -7 10 -14 -5 -79 45 -79 61 0 16 -136 144 -145 137 -4 -5 -6 -3 -2 2 3 6
-10 24 -29 40 -19 17 -47 42 -62 58 -16 15 -38 29 -49 32 -12 2 -31 13 -43 25
-12 12 -35 26 -51 32 -16 5 -27 14 -24 18 3 4 -2 11 -11 14 -8 3 -13 2 -10 -3
4 -5 -5 -4 -18 2 -14 7 -23 13 -21 16 9 9 -197 101 -226 101 -31 0 -65 -61
-49 -89 5 -10 14 -47 19 -82 6 -35 15 -65 20 -67 6 -2 7 -10 4 -19 -4 -10 -2
-14 4 -10 6 4 10 -1 9 -11 0 -9 4 -16 10 -15 6 1 10 -6 10 -15 -2 -40 200
-252 240 -252 8 0 13 -4 9 -9 -3 -5 5 -13 17 -17 12 -3 30 -14 40 -24 11 -10
32 -20 47 -23 15 -3 38 -15 52 -27 15 -14 18 -20 7 -16 -9 2 -19 -2 -22 -10
-3 -8 -14 -14 -24 -14 -11 0 -31 -11 -46 -25 -15 -14 -39 -31 -54 -39 -25 -13
-44 -33 -88 -91 -9 -11 -13 -13 -9 -5 4 8 0 6 -9 -4 -8 -10 -13 -22 -11 -27 3
-4 1 -10 -5 -14 -5 -3 -10 -17 -10 -31 0 -13 -4 -24 -10 -24 -5 0 -10 -25 -10
-55 0 -32 4 -55 11 -55 5 0 7 -4 4 -10 -3 -5 -1 -10 5 -10 6 0 9 -8 6 -18 -4
-10 1 -27 9 -38 8 -10 15 -14 15 -7 0 6 -4 15 -10 18 -5 3 -10 12 -10 18 0 7
7 3 15 -7 16 -21 11 -51 -11 -74 -17 -16 -18 -26 -3 -16 8 4 8 1 1 -13 -6 -11
-10 -33 -8 -48 2 -17 -6 -42 -20 -63 -32 -47 -30 -68 9 -107 23 -23 31 -38 26
-51 -6 -17 -7 -16 -12 6 -3 15 -5 7 -4 -20 0 -60 18 -131 39 -151 17 -18 91
-23 81 -6 -3 5 0 7 8 5 8 -3 24 -1 37 3 16 6 33 4 53 -6 16 -9 35 -13 41 -9 6
4 8 3 4 -4 -6 -10 51 -52 71 -52 5 0 20 14 32 31 13 18 19 29 12 25 -6 -4 -9
-2 -5 7 2 7 10 14 17 14 28 0 133 26 144 35 7 6 20 8 28 4 8 -3 15 -1 15 5 0
6 8 8 18 5 23 -7 100 19 81 28 -8 3 -4 4 9 2 25 -5 52 26 52 59 0 34 -47 68
-79 59 -28 -8 -40 -10 -84 -13 -16 0 -26 -4 -24 -9 3 -4 -11 -8 -31 -9 l-37
-2 38 13 c44 16 77 43 77 63 0 8 5 11 10 8 6 -3 10 -2 10 3 0 8 121 52 143 52
20 0 117 54 117 66 0 7 4 16 10 19 6 4 7 -1 4 -12 -5 -16 -4 -16 10 1 9 11 16
26 16 34 0 7 5 10 12 6 7 -4 8 -3 4 4 -8 14 3 64 14 57 4 -2 12 21 19 53 19
100 21 169 5 224 -22 79 -63 146 -82 134 -4 -2 -14 5 -22 17 -12 20 -12 21 3
8 15 -12 17 -11 18 5 1 11 1 26 0 34 -1 11 0 12 7 2 9 -14 83 92 109 157 8 20
18 45 23 56 30 63 50 195 50 332 0 158 -9 198 -41 190 -16 -4 -18 -3 -8 9 14
17 11 17 -24 -2z m18 -402 c-32 -143 -93 -261 -182 -350 -47 -46 -50 -52 -29
-52 7 0 32 -17 56 -37 59 -53 83 -124 75 -218 -10 -106 -46 -215 -82 -247 -19
-17 -120 -53 -230 -84 -48 -12 -63 -21 -63 -35 0 -32 -54 -60 -133 -67 -117
-11 -337 -5 -387 11 -56 18 -66 53 -25 89 22 19 25 28 20 58 -4 23 0 53 10 81
24 64 29 89 17 89 -21 0 -52 67 -52 112 0 68 35 124 124 200 90 78 166 107
285 111 38 1 67 5 65 8 -2 4 -28 13 -56 19 -236 56 -462 221 -550 403 -36 72
-77 221 -65 233 11 11 257 -114 362 -183 103 -68 314 -268 423 -401 29 -35 52
-59 53 -55 0 4 0 40 -1 78 -3 154 54 309 152 419 29 33 91 90 138 127 l85 68
3 -152 c2 -112 -2 -171 -13 -225z m-899 -1163 l70 -31 69 31 c37 17 69 30 70
29 6 -7 14 -208 9 -208 -3 0 -24 15 -47 34 -80 64 -93 67 -165 39 -35 -14 -65
-23 -67 -21 -7 6 -25 106 -25 134 0 13 3 24 8 24 4 0 39 -14 78 -31z m334 26
c0 -2 -16 -9 -37 -14 -39 -11 -70 -3 -37 10 21 8 74 12 74 4z m250 -15 c0 -26
-19 -35 -148 -64 -61 -15 -123 -31 -138 -36 -21 -8 -29 -8 -36 2 -21 34 0 46
143 82 163 41 179 43 179 16z"/>
<path d="M500 833 c-38 -35 -52 -96 -24 -107 13 -5 31 6 66 41 53 52 60 77 26
87 -34 9 -35 8 -68 -21z"/>
<path d="M672 839 c-19 -7 -22 -16 -22 -59 0 -62 11 -85 50 -105 42 -21 106
-6 142 34 35 39 28 56 -30 81 -26 12 -53 27 -62 34 -21 19 -52 24 -78 15z m73
-60 c-4 -5 0 -9 8 -9 8 0 20 -7 27 -15 7 -8 16 -12 21 -9 5 3 9 1 9 -4 0 -15
-46 -34 -76 -30 -21 2 -30 9 -32 26 -2 14 -8 20 -15 15 -7 -3 -4 2 5 13 17 20
64 31 53 13z"/>
<path d="M531 689 c-14 -66 -4 -81 53 -77 36 3 41 6 44 30 3 28 -49 98 -73 98
-8 0 -18 -21 -24 -51z"/>
<path d="M490 496 c-5 -5 -10 -18 -10 -28 0 -21 22 -25 171 -32 88 -5 109 -3
119 9 16 20 9 27 -32 31 -18 2 -79 9 -135 17 -69 9 -106 10 -113 3z"/>
</g>
</svg>
