<svg id="visual" viewBox="0 0 440 600" width="440" height="600" xmlns="http://www.w3.org/2000/svg" xmlns:xlink="http://www.w3.org/1999/xlink" version="1.1"><rect width="440" height="600" fill="#000"></rect><g><g transform="translate(188 491)"><path d="M32.9 -41.2C40.6 -32.7 43.5 -20.5 45.3 -8.3C47.1 3.9 47.9 16 43.4 26.4C39 36.7 29.3 45.4 15.7 55.7C2.1 66.1 -15.4 78.2 -26.4 73.7C-37.5 69.2 -42.1 48.1 -51.2 30.5C-60.2 12.9 -73.7 -1.2 -73.3 -14.6C-73 -28 -58.9 -40.7 -44.4 -48C-29.9 -55.2 -14.9 -57 -1.2 -55.6C12.6 -54.2 25.2 -49.6 32.9 -41.2Z" fill="#ffff66"></path></g><g transform="translate(335 36)"><path d="M18.1 -19.5C23.8 -16.9 28.8 -11.4 32 -4.1C35.2 3.3 36.5 12.6 32.7 18.6C28.9 24.7 20 27.4 10.9 31.4C1.8 35.4 -7.4 40.5 -13.4 37.9C-19.3 35.2 -22 24.7 -23.2 16.4C-24.3 8.1 -24 2 -22 -3C-20.1 -7.9 -16.5 -11.6 -12.5 -14.6C-8.6 -17.5 -4.3 -19.7 1 -20.8C6.3 -22 12.5 -22.2 18.1 -19.5Z" fill="#ffff66"></path></g><g transform="translate(95 132)"><path d="M21.7 -30.6C26.9 -21.5 29 -13.5 28 -6.8C27 -0.1 22.8 5.4 19.5 11.2C16.1 17 13.4 23.3 6 33.3C-1.4 43.3 -13.6 57.1 -26.1 58.4C-38.7 59.7 -51.5 48.4 -60.2 34.3C-68.9 20.2 -73.4 3.2 -67.5 -8.7C-61.6 -20.6 -45.2 -27.5 -32.2 -35.2C-19.2 -42.9 -9.6 -51.5 -0.7 -50.7C8.3 -49.9 16.5 -39.7 21.7 -30.6Z" fill="#ffff66"></path></g></g></svg>