<svg id="visual" viewBox="0 0 760 1000" width="760" height="1000" xmlns="http://www.w3.org/2000/svg" xmlns:xlink="http://www.w3.org/1999/xlink" version="1.1"><rect width="760" height="1000" fill="#000"></rect><g><g transform="translate(672 253)"><path d="M32.2 -52.3C42 -30.2 50.5 -20.3 56.2 -7.1C61.9 6.1 64.8 22.6 64.1 49.5C63.5 76.3 59.2 113.6 38.8 131.9C18.5 150.2 -17.9 149.6 -33.2 128.1C-48.6 106.5 -43 64 -41.1 37.9C-39.2 11.8 -41.1 2.1 -48.8 -18C-56.5 -38.2 -70 -68.8 -62.8 -91.4C-55.6 -113.9 -27.8 -128.5 -8.3 -118.6C11.2 -108.7 22.4 -74.4 32.2 -52.3Z" fill="#ffff66"></path></g><g transform="translate(189 114)"><path d="M47.9 -49.3C61.3 -45.7 71 -30 76.4 -11.7C81.7 6.6 82.6 27.4 73.8 42.5C64.9 57.5 46.3 66.8 28.1 70.3C10 73.9 -7.7 71.7 -24.7 66.2C-41.7 60.7 -58 51.8 -68.7 37.6C-79.4 23.4 -84.5 3.8 -76.6 -8.8C-68.8 -21.4 -48.1 -27 -33.2 -30.4C-18.3 -33.7 -9.1 -34.8 4 -39.6C17.2 -44.4 34.4 -52.9 47.9 -49.3Z" fill="#ffff66"></path></g><g transform="translate(175 499)"><path d="M26.9 -40.1C34.1 -25.9 38.8 -16.8 40.8 -7C42.7 2.8 41.8 13.2 36.6 20.2C31.4 27.2 21.9 30.7 11.5 36.6C1.2 42.5 -10.2 50.8 -16.6 47.6C-23.1 44.4 -24.7 29.8 -32.6 17.9C-40.6 6.1 -54.9 -3.1 -61.4 -18.6C-67.9 -34.1 -66.7 -56 -55.1 -69.5C-43.6 -82.9 -21.8 -87.8 -6 -80.6C9.8 -73.5 19.6 -54.2 26.9 -40.1Z" fill="#ffff66"></path></g><g transform="translate(222 894)"><path d="M66.9 -79.9C77.6 -70.7 70.9 -41 65.5 -19.3C60 2.3 55.7 16 47.8 25.6C39.9 35.2 28.4 40.7 16.5 44.8C4.7 48.8 -7.5 51.5 -18 48.2C-28.5 44.9 -37.3 35.8 -55.4 23C-73.5 10.2 -100.9 -6.2 -102.2 -21.3C-103.5 -36.5 -78.7 -50.3 -57.3 -57.6C-35.9 -64.9 -17.9 -65.6 5.1 -71.6C28.1 -77.7 56.2 -89 66.9 -79.9Z" fill="#ffff66"></path></g></g></svg>